<?xml version="1.0" encoding="utf-8"?>
<!-- Generator: Adobe Illustrator 18.1.1, SVG Export Plug-In . SVG Version: 6.00 Build 0)  -->
<svg version="1.1" id="Ebene_1" xmlns="http://www.w3.org/2000/svg" xmlns:xlink="http://www.w3.org/1999/xlink" x="0px" y="0px"
	 width="176px" height="46px" viewBox="0 0 176 46" style="enable-background:new 0 0 176 46;" xml:space="preserve">
<g>
	<path style="fill:#030000;" d="M41.2,31.2c1.2,1.5,2.9,2.7,5.1,2.7c1.9,0,3.6-1.2,3.6-3.1c0-3.2-4.4-3.5-7.1-5.3
		c-1.5-1-2.6-2.4-2.6-4.6c0-3,2.7-5.5,6.3-5.5c2.6,0,4.5,1.2,5.6,2.1l-1.7,2.2c-1.1-0.9-2.4-1.4-3.7-1.4c-1.7,0-3.4,1-3.4,2.8
		c0,2.6,4.4,3.2,7.1,5c1.4,0.9,2.7,2.4,2.7,4.7c0,3.6-2.8,6-6.4,6c-2.8,0-5.4-1.2-7.3-3.5L41.2,31.2z"/>
	<path style="fill:#030000;" d="M64.5,36.3c-0.5,0.2-1.4,0.3-2.2,0.3c-1.7,0-3.1-0.6-3.9-1.6c-0.8-0.9-1.1-2.2-1.1-3.7v-6.4h-3.6
		v-2.5h3.6v-3.9h2.8v3.9h4.4v2.5h-4.4v6.5c0,0.7,0.1,1.4,0.4,1.8c0.4,0.5,1.2,0.7,1.9,0.7c0.4,0,1.1-0.1,1.5-0.2L64.5,36.3z"/>
	<path style="fill:#030000;" d="M104.2,17.8c-0.2-0.1-0.7-0.1-1-0.1c-0.8,0-1.7,0.4-2.1,1c-0.4,0.5-0.5,1.2-0.5,2.5v1.3h4.3v2.5
		h-4.3v11.4h-2.8V24.9h-7.6v11.4h-2.8V24.9h-3.3v-2.5h3.3v-1.2c0-1.9,0.3-3,0.9-3.9c1-1.5,2.7-2.3,4.6-2.3c0.6,0,1.3,0.1,1.7,0.2
		l-0.6,2.6c-0.2-0.1-0.7-0.1-1-0.1c-0.8,0-1.7,0.4-2.1,1c-0.4,0.5-0.5,1.2-0.5,2.5v1.3h7.6v-1.2c0-1.9,0.3-3,0.9-3.9
		c1-1.5,2.7-2.3,4.6-2.3c0.6,0,1.3,0.1,1.7,0.2L104.2,17.8z"/>
	<path style="fill:#030000;" d="M119.9,33.4c-1.2,1.9-3.6,3.3-6.2,3.3c-4.3,0-7.4-3.1-7.4-7.3c0-4.1,3.1-7.3,7.3-7.3
		c2.4,0,4.6,1.2,5.9,3l-2.1,1.7c-0.8-1.1-2.1-2.1-3.9-2.1c-2.5,0-4.4,2-4.4,4.6c0,2.7,2,4.6,4.6,4.6c1.8,0,3.1-1,4-2.2L119.9,33.4z"
		/>
	<path style="fill:#030000;" d="M122.7,15.3h2.8v21h-2.8V15.3z"/>
	<path style="fill:#030000;" d="M136.1,22.1c4.1,0,7.2,3.1,7.2,7.3c0,4.1-3.1,7.3-7.2,7.3c-4.1,0-7.2-3.1-7.2-7.3
		C128.9,25.2,131.9,22.1,136.1,22.1z M136.1,34c2.6,0,4.4-2,4.4-4.6s-1.8-4.6-4.4-4.6c-2.6,0-4.4,2-4.4,4.6S133.5,34,136.1,34z"/>
	<path style="fill:#030000;" d="M173.2,15.3v8.3c-1.2-1-2.8-1.5-4.3-1.5c-1.3,0-2.5,0.3-3.4,0.9c-2.1,1.2-3.6,3.6-3.6,6.4
		s1.5,5.1,3.6,6.3c0.9,0.6,2.3,0.9,3.5,0.9c1.7,0,3.2-0.6,4.3-1.6v1.3h2.7v-21H173.2z M169.2,34c-2.9,0-4.5-2.4-4.5-4.6
		c0-3,2.4-4.6,4.4-4.6c2.8,0,4.4,2.2,4.4,4.6C173.6,31.9,171.9,34,169.2,34z"/>
	<path style="fill:#030000;" d="M78.1,22.4v1.3c-1.3-1.1-2.8-1.6-4.4-1.6c-1.3,0-2.5,0.3-3.4,0.9c-2.1,1.2-3.6,3.6-3.6,6.4
		s1.5,5.1,3.6,6.3c0.9,0.6,2.3,0.9,3.5,0.9c1.7,0,3.2-0.6,4.3-1.6v1.3h2.7V22.4H78.1z M73.9,34c-2.6,0-4.4-2-4.4-4.6
		c0-2.5,1.9-4.6,4.6-4.6c2.4,0,4.2,1.8,4.2,4.6C78.4,31.4,77.2,34,73.9,34z"/>
	<path style="fill:#030000;" d="M156.4,22.4v7.5c0,1.4-0.3,2.2-0.8,2.8c-0.6,0.7-1.7,1.2-2.9,1.2c-1.2,0-2.3-0.5-2.9-1.2
		c-0.5-0.6-0.8-1.4-0.8-2.8v-7.5h-2.8v7.1c0,2.3,0.4,3.7,1.3,4.8c1.2,1.5,3.1,2.3,5.2,2.3c2.1,0,4.1-0.9,5.2-2.3
		c0.9-1.1,1.3-2.4,1.3-4.8v-7.1H156.4z"/>
</g>
<g>
	<polygon style="fill:#FFFFFF;" points="13.3,30.1 25.8,37.3 25.8,23.2 12.9,15.8 0.7,22.8 12.9,29.9 	"/>
	<polygon style="fill:#FFFFFF;" points="25.1,38.6 25,38.6 12.9,31.6 0.7,38.6 12.9,45.6 	"/>
	<polygon style="fill:#FFFFFF;" points="12.9,0 0,7.5 0,21.5 25.1,7 	"/>
</g>
</svg>
