<?xml version="1.0" encoding="UTF-8"?>
<svg width="46px" height="31px" viewBox="0 0 46 31" version="1.1" xmlns="http://www.w3.org/2000/svg" xmlns:xlink="http://www.w3.org/1999/xlink">
    <!-- Generator: Sketch 47.1 (45422) - http://www.bohemiancoding.com/sketch -->
    <title>Page 1</title>
    <desc>Created with Sketch.</desc>
    <defs></defs>
    <g id="Symbols" stroke="none" stroke-width="1" fill="none" fill-rule="evenodd" stroke-linejoin="round">
        <g id="icons/branche---catering-copy" transform="translate(-3.000000, -9.000000)" stroke="#FFFFFF">
            <g id="Page-1" transform="translate(3.000000, 9.000000)">
                <path d="M36.5528,14.7097 C36.5528,22.0427 30.6078,27.9877 23.2748,27.9877 C15.9408,27.9877 9.9958,22.0427 9.9958,14.7097 C9.9958,7.3757 15.9408,1.4317 23.2748,1.4317 C30.6078,1.4317 36.5528,7.3757 36.5528,14.7097 Z" id="Stroke-1"></path>
                <path d="M32.3609,14.7097 C32.3609,19.7277 28.2929,23.7957 23.2749,23.7957 C18.2569,23.7957 14.1889,19.7277 14.1889,14.7097 C14.1889,9.6907 18.2569,5.6227 23.2749,5.6227 C28.2929,5.6227 32.3609,9.6907 32.3609,14.7097 Z" id="Stroke-3"></path>
                <path d="M4.0777,30.0602 L3.1957,30.0602 C2.6597,30.0602 2.2247,29.6512 2.2247,29.1462 L2.4027,12.0382 L4.8707,12.0382 L5.0487,29.1462 C5.0487,29.6512 4.6137,30.0602 4.0777,30.0602 Z" id="Stroke-5"></path>
                <path d="M43.5606,17.572 C45.8396,13.775 46.0066,6.108 42.8296,0.931 C42.0316,0.029 41.0426,0.737 41.0426,1.292 C41.0426,1.93 41.0116,17.572 41.0116,17.572 L41.0116,29.286 C41.0116,29.714 41.3586,30.06 41.7866,30.06 L42.7816,30.06 C43.2096,30.06 43.5566,29.714 43.5566,29.286 C43.5566,29.286 43.4846,17.563 43.5606,17.572 Z" id="Stroke-7"></path>
                <path d="M6.3072,1.2731 L6.6812,9.1451 L6.6822,9.1451 C6.6822,10.7531 5.2982,12.0571 3.5912,12.0571 C1.8842,12.0571 0.5002,10.7531 0.5002,9.1451 L0.8732,1.2731" id="Stroke-9" stroke-linecap="round"></path>
                <path d="M3.6368,8.9831 L3.6368,1.2731" id="Stroke-11" stroke-linecap="round"></path>
                <path d="M0.5733,9.0729 L6.6323,9.0729" id="Stroke-13" stroke-linecap="round"></path>
            </g>
        </g>
    </g>
</svg>