<?xml version="1.0" encoding="UTF-8"?>
<svg width="29px" height="33px" viewBox="0 0 29 33" version="1.1" xmlns="http://www.w3.org/2000/svg" xmlns:xlink="http://www.w3.org/1999/xlink">
    <!-- Generator: Sketch 47.1 (45422) - http://www.bohemiancoding.com/sketch -->
    <title>Page 1</title>
    <desc>Created with Sketch.</desc>
    <defs></defs>
    <g id="Symbols" stroke="none" stroke-width="1" fill="none" fill-rule="evenodd" stroke-linecap="round" stroke-linejoin="round">
        <g id="icons/branche---catering-2-copy" transform="translate(-12.000000, -8.000000)" stroke="#FFFFFF">
            <g id="Page-1" transform="translate(12.000000, 8.000000)">
                <path d="M22.8233,32.3333 L5.4263,32.3333 C4.8733,32.3333 4.4263,31.8863 4.4263,31.3333 L4.4263,25.7433 C4.4263,25.1903 4.8733,24.7433 5.4263,24.7433 L22.8233,24.7433 C23.3753,24.7433 23.8233,25.1903 23.8233,25.7433 L23.8233,31.3333 C23.8233,31.8863 23.3753,32.3333 22.8233,32.3333 Z" id="Stroke-1"></path>
                <path d="M15.8956,6.9837 C17.0616,5.2577 19.0356,4.1237 21.2746,4.1237 C24.8576,4.1237 27.7616,7.0277 27.7616,10.6107 C27.7616,13.5837 25.7616,16.0887 23.0336,16.8557 L23.0336,24.7507" id="Stroke-3"></path>
                <path d="M19.3604,4.344 C18.3484,2.078 16.0754,0.5 13.4344,0.5 C10.5884,0.5 8.1704,2.333 7.2964,4.883 L7.2654,4.868 C6.8104,4.741 6.3314,4.674 5.8364,4.674 C2.8894,4.674 0.5004,7.064 0.5004,10.011 C0.5004,12.774 2.5994,15.046 5.2904,15.32 L5.2904,24.743" id="Stroke-5"></path>
                <path d="M14.1246,27.2171 L14.1246,29.8591" id="Stroke-7"></path>
                <path d="M9.2496,27.2171 L9.2496,29.8591" id="Stroke-9"></path>
                <path d="M18.9996,27.2171 L18.9996,29.8591" id="Stroke-11"></path>
            </g>
        </g>
    </g>
</svg>