<?xml version="1.0" encoding="UTF-8"?>
<svg width="25px" height="32px" viewBox="0 0 25 32" version="1.1" xmlns="http://www.w3.org/2000/svg" xmlns:xlink="http://www.w3.org/1999/xlink">
    <!-- Generator: Sketch 47.1 (45422) - http://www.bohemiancoding.com/sketch -->
    <title>Page 1</title>
    <desc>Created with Sketch.</desc>
    <defs></defs>
    <g id="Symbols" stroke="none" stroke-width="1" fill="none" fill-rule="evenodd" stroke-linejoin="round">
        <g id="icon/branche---hotel" transform="translate(-13.000000, -9.000000)" stroke="#6F6F6E">
            <g id="Page-1" transform="translate(14.000000, 10.000000)">
                <g id="Group-4">
                    <polygon id="Stroke-1" points="0.479166667 29.516129 23 29.516129 23 0.483870968 0.479166667 0.483870968"></polygon>
                    <polygon id="Stroke-3" points="8.984375 29.516129 14.4947917 29.516129 14.4947917 22.7419355 8.984375 22.7419355"></polygon>
                </g>
                <path d="M4,4 L4,6" id="Stroke-5" stroke-width="1.5" stroke-linecap="round"></path>
                <path d="M9,4 L9,6" id="Stroke-6" stroke-width="1.5" stroke-linecap="round"></path>
                <path d="M14,4 L14,6" id="Stroke-7" stroke-width="1.5" stroke-linecap="round"></path>
                <path d="M19,4 L19,6" id="Stroke-8" stroke-width="1.5" stroke-linecap="round"></path>
                <path d="M4,10 L4,12" id="Stroke-9" stroke-width="1.5" stroke-linecap="round"></path>
                <path d="M9,11 L9,13" id="Stroke-10" stroke-width="1.5" stroke-linecap="round"></path>
                <path d="M14,11 L14,13" id="Stroke-11" stroke-width="1.5" stroke-linecap="round"></path>
                <path d="M19,11 L19,13" id="Stroke-12" stroke-width="1.5" stroke-linecap="round"></path>
                <path d="M4,16 L4,18" id="Stroke-13" stroke-width="1.5" stroke-linecap="round"></path>
                <path d="M9,17 L9,19" id="Stroke-14" stroke-width="1.5" stroke-linecap="round"></path>
                <path d="M14,17 L14,19" id="Stroke-15" stroke-width="1.5" stroke-linecap="round"></path>
                <path d="M19,17 L19,19" id="Stroke-16" stroke-width="1.5" stroke-linecap="round"></path>
                <path d="M4,23 L4,25" id="Stroke-17" stroke-width="1.5" stroke-linecap="round"></path>
                <path d="M19,23 L19,25" id="Stroke-18" stroke-width="1.5" stroke-linecap="round"></path>
            </g>
        </g>
    </g>
</svg>