<?xml version="1.0" encoding="UTF-8"?>
<svg width="25px" height="35px" viewBox="0 0 25 35" version="1.1" xmlns="http://www.w3.org/2000/svg" xmlns:xlink="http://www.w3.org/1999/xlink">
    <!-- Generator: Sketch 47.1 (45422) - http://www.bohemiancoding.com/sketch -->
    <title>Page 1</title>
    <desc>Created with Sketch.</desc>
    <defs></defs>
    <g id="Symbols" stroke="none" stroke-width="1" fill="none" fill-rule="evenodd">
        <g id="icons/branche---event-location-copy" transform="translate(-12.000000, -8.000000)" fill="#FFFFFF">
            <g id="Page-1" transform="translate(12.000000, 8.000000)">
                <path d="M12.500767,15.7127514 C10.7274587,15.7127514 9.28702915,14.2720764 9.28702915,12.4969315 C9.28702915,10.7263894 10.7274587,9.28418002 12.500767,9.28418002 C14.2725413,9.28418002 15.7160389,10.7263894 15.7160389,12.4969315 C15.7160389,14.2720764 14.2725413,15.7127514 12.500767,15.7127514 M12.500767,8 C10.0187489,8 8,10.0175588 8,12.4969315 C8,14.9793727 10.0187489,17 12.500767,17 C14.9812511,17 17,14.9793727 17,12.4969315 C17,10.0175588 14.9812511,8 12.500767,8" id="Fill-1"></path>
                <g id="Group-5">
                    <path d="M21.0841647,20.1243913 L12.2931059,32.760913 L3.48369412,20.1046087 C0.152635294,15.6839565 0.628282353,8.42221739 4.50687059,4.56308696 C6.58687059,2.49656522 9.35204706,1.35678261 12.2931059,1.35678261 C15.2326353,1.35678261 17.9947529,2.49656522 20.0762824,4.56308696 C23.9533412,8.42221739 24.4320471,15.6839565 21.0841647,20.1243913 M20.9847529,3.66221739 C18.6615765,1.35373913 15.5752235,0.0800434783 12.2931059,0.0800434783 C9.0064,0.0800434783 5.92157647,1.35373913 3.5984,3.66221739 C-0.694658824,7.93678261 -1.22995294,15.9761304 2.44369412,20.8502609 L12.2931059,34.9993913 L22.1226353,20.8685217 C25.8131059,15.9761304 25.2778118,7.93678261 20.9847529,3.66221739" id="Fill-3"></path>
                </g>
            </g>
        </g>
    </g>
</svg>