<?xml version="1.0" encoding="UTF-8"?>
<svg width="30px" height="29px" viewBox="0 0 30 29" version="1.1" xmlns="http://www.w3.org/2000/svg" xmlns:xlink="http://www.w3.org/1999/xlink">
    <!-- Generator: Sketch 47.1 (45422) - http://www.bohemiancoding.com/sketch -->
    <title>Page 1</title>
    <desc>Created with Sketch.</desc>
    <defs>
        <polygon id="path-1" points="0 28.2765 29.441 28.2765 29.441 0.0005 0 0.0005"></polygon>
    </defs>
    <g id="Symbols" stroke="none" stroke-width="1" fill="none" fill-rule="evenodd">
        <g id="icons/branche---promotion-copy" transform="translate(-11.000000, -10.000000)">
            <g id="Page-1" transform="translate(11.000000, 10.000000)">
                <path d="M4.4544,17.8383 L13.7314,17.8383 C16.4694,17.8383 24.0744,19.0553 28.9404,25.4423 L28.9404,0.5003 C24.0744,6.8883 16.4694,8.1053 13.7314,8.1053 L4.4544,8.1053 L4.4544,17.8383 Z" id="Stroke-1" stroke="#FFFFFF" stroke-linejoin="round"></path>
                <path d="M13.8841,8.1049 L13.8841,17.8379" id="Stroke-3" stroke="#FFFFFF" stroke-linejoin="round"></path>
                <mask id="mask-2" fill="white">
                    <use xlink:href="#path-1"></use>
                </mask>
                <g id="Clip-6"></g>
                <polygon id="Stroke-5" stroke="#FFFFFF" stroke-linecap="round" stroke-linejoin="round" mask="url(#mask-2)" points="0.5 15.8605 4.455 15.8605 4.455 10.0815 0.5 10.0815"></polygon>
                <path d="M6.7928,17.8373 L11.0508,17.8373 L14.9618,24.3263 C15.1668,24.6653 15.1128,25.1003 14.8338,25.3793 L12.7498,27.4633 C12.2218,27.9903 11.3308,27.8283 11.0218,27.1503 L6.7928,17.8373 Z" id="Stroke-7" stroke="#FFFFFF" stroke-linejoin="round" mask="url(#mask-2)"></path>
            </g>
        </g>
    </g>
</svg>