<?xml version="1.0" encoding="UTF-8"?>
<svg width="32px" height="34px" viewBox="0 0 32 34" version="1.1" xmlns="http://www.w3.org/2000/svg" xmlns:xlink="http://www.w3.org/1999/xlink">
    <!-- Generator: Sketch 47.1 (45422) - http://www.bohemiancoding.com/sketch -->
    <title>Page 1</title>
    <desc>Created with Sketch.</desc>
    <defs></defs>
    <g id="Symbols" stroke="none" stroke-width="1" fill="none" fill-rule="evenodd">
        <g id="icon/branche---retail-copy" transform="translate(-10.000000, -9.000000)" stroke="#FFFFFF">
            <g id="Page-1" transform="translate(10.000000, 9.000000)">
                <polyline id="Stroke-1" stroke-linecap="round" stroke-linejoin="round" points="0.5 0.5 3.263 1.053 9.342 19.842 5.474 26.474 30.342 26.474"></polyline>
                <polyline id="Stroke-3" stroke-linejoin="round" points="4.2354 4.2949 31.4474 7.6849 31.4474 18.1849 9.3424 19.8419"></polyline>
                <path d="M10.2383,30.999 C10.2383,32.104 9.3423,33 8.2373,33 C7.1313,33 6.2353,32.104 6.2353,30.999 C6.2353,29.894 7.1313,28.997 8.2373,28.997 C9.3423,28.997 10.2383,29.894 10.2383,30.999 Z" id="Stroke-5"></path>
                <path d="M30.1329,30.999 C30.1329,32.104 29.2369,33 28.1319,33 C27.0269,33 26.1309,32.104 26.1309,30.999 C26.1309,29.894 27.0269,28.997 28.1319,28.997 C29.2369,28.997 30.1329,29.894 30.1329,30.999 Z" id="Stroke-7"></path>
                <path d="M7.1314,12.6582 L31.4474,12.6582" id="Stroke-9" stroke-linecap="round" stroke-linejoin="round"></path>
                <path d="M27.5791,7.1318 L27.5791,18.7368" id="Stroke-11" stroke-linejoin="round"></path>
                <path d="M23.3565,6.5791 L23.9095,18.7371" id="Stroke-13" stroke-linejoin="round"></path>
                <path d="M19.1338,6.0264 L20.2388,19.0124" id="Stroke-15" stroke-linejoin="round"></path>
                <path d="M14.9117,5.4736 L16.5697,19.2886" id="Stroke-17" stroke-linejoin="round"></path>
                <path d="M9.584,4.9209 L12.899,19.2889" id="Stroke-19" stroke-linejoin="round"></path>
            </g>
        </g>
    </g>
</svg>