<?xml version="1.0" encoding="UTF-8"?>
<svg width="32px" height="33px" viewBox="0 0 32 33" version="1.1" xmlns="http://www.w3.org/2000/svg" xmlns:xlink="http://www.w3.org/1999/xlink">
    <!-- Generator: Sketch 47.1 (45422) - http://www.bohemiancoding.com/sketch -->
    <title>Page 1</title>
    <desc>Created with Sketch.</desc>
    <defs></defs>
    <g id="Symbols" stroke="none" stroke-width="1" fill="none" fill-rule="evenodd" stroke-linecap="round" stroke-linejoin="round">
        <g id="icons/branche---security" transform="translate(-10.000000, -8.000000)" stroke="#6F6F6E">
            <g id="Page-1" transform="translate(10.000000, 9.000000)">
                <path d="M16.6555,19.9488 C17.8875,20.4798 19.2455,20.7748 20.6725,20.7748 C26.2715,20.7748 30.8105,16.2368 30.8105,10.6368 C30.8105,5.0388 26.2715,0.4998 20.6725,0.4998 C15.0735,0.4998 10.5345,5.0388 10.5345,10.6368 C10.5345,12.0758 10.8345,13.4438 11.3745,14.6828 L0.4995,25.5428 L0.4995,30.9978 L5.5275,30.9978 L6.8015,29.7228 L6.8015,27.0818 L9.4165,27.0818 L9.4165,24.4578 L12.0345,24.4578 L12.0345,21.8368 L14.7725,21.8368 L16.6555,19.9488 Z" id="Stroke-1"></path>
                <path d="M26.1482,7.3257 C26.1482,8.5207 25.1792,9.4897 23.9842,9.4897 C22.7892,9.4897 21.8202,8.5207 21.8202,7.3257 C21.8202,6.1317 22.7892,5.1617 23.9842,5.1617 C25.1792,5.1617 26.1482,6.1317 26.1482,7.3257 Z" id="Stroke-3"></path>
            </g>
        </g>
    </g>
</svg>