<?xml version="1.0" encoding="UTF-8"?>
<svg width="28px" height="25px" viewBox="0 0 28 25" version="1.1" xmlns="http://www.w3.org/2000/svg" xmlns:xlink="http://www.w3.org/1999/xlink">
    <!-- Generator: Sketch 47.1 (45422) - http://www.bohemiancoding.com/sketch -->
    <title>Page 1</title>
    <desc>Created with Sketch.</desc>
    <defs></defs>
    <g id="Symbols" stroke="none" stroke-width="1" fill="none" fill-rule="evenodd">
        <g id="icon/branche---staff-provider-copy" transform="translate(-12.000000, -12.000000)" fill="#FFFFFF">
            <g id="Page-1" transform="translate(12.000000, 12.000000)">
                <path d="M8.7771,8.4298 C7.8541,8.4298 6.8391,8.8798 6.6531,9.8848 C6.5911,10.2178 6.2711,10.4378 5.9381,10.3758 C5.6051,10.3148 5.3841,9.9938 5.4461,9.6608 C5.7601,7.9628 7.3461,7.2018 8.7771,7.2018 C10.2081,7.2018 11.7931,7.9628 12.1081,9.6608 C12.1701,9.9938 11.9491,10.3148 11.6161,10.3758 C11.5781,10.3828 11.5411,10.3868 11.5041,10.3868 C11.2141,10.3868 10.9551,10.1798 10.9011,9.8848 C10.7151,8.8798 9.7001,8.4298 8.7771,8.4298 L8.7771,8.4298 Z M7.7541,24.0398 C7.8161,24.3738 7.5961,24.6948 7.2621,24.7558 C7.2251,24.7628 7.1871,24.7668 7.1501,24.7668 C6.8601,24.7668 6.6021,24.5618 6.5471,24.2658 L6.0061,21.3458 C5.8201,20.3418 4.8051,19.8958 3.8821,19.8958 C2.9591,19.8958 1.9441,20.3538 1.7581,21.3578 L1.3521,23.5688 L4.3251,23.5688 C4.6641,23.5688 4.9391,23.8428 4.9391,24.1828 C4.9391,24.5218 4.6641,24.7958 4.3251,24.7958 L0.6141,24.7958 C0.4321,24.7958 0.2581,24.6998 0.1421,24.5598 C0.0251,24.4188 -0.0229,24.2198 0.0101,24.0398 L0.5511,21.1188 C0.8661,19.4208 2.4511,18.6598 3.8821,18.6598 C5.3141,18.6598 6.8991,19.4208 7.2131,21.1188 L7.7541,24.0398 Z M7.2181,2.6518 C7.2561,1.6508 8.0761,1.2598 8.7771,1.2278 C9.4781,1.2598 10.2981,1.6508 10.3361,2.6518 C10.3701,3.5748 10.0621,4.2988 9.4901,4.6388 C9.0501,4.8998 8.5041,4.9008 8.0641,4.6388 C7.4911,4.2988 7.1841,3.5748 7.2181,2.6518 L7.2181,2.6518 Z M7.4371,5.6948 C7.8501,5.9398 8.3131,6.0628 8.7771,6.0628 C9.2401,6.0628 9.7041,5.9398 10.1171,5.6948 C11.0881,5.1168 11.6141,3.9928 11.5621,2.6058 C11.4981,0.8798 10.0851,0.0448 8.7981,-0.0002 L8.7561,-0.0002 C7.4691,0.0448 6.0561,0.8798 5.9911,2.6058 C5.9401,3.9928 6.4661,5.1168 7.4371,5.6948 L7.4371,5.6948 Z M26.8411,24.7558 C26.8031,24.7628 26.7661,24.7668 26.7291,24.7668 C26.4391,24.7668 26.1811,24.5618 26.1261,24.2658 L25.5851,21.3458 C25.3991,20.3418 24.3841,19.8958 23.4611,19.8958 C22.5381,19.8958 21.5241,20.3538 21.3371,21.3578 L20.9301,23.5688 L23.7251,23.5688 C24.0641,23.5688 24.3391,23.8428 24.3391,24.1828 C24.3391,24.5218 24.0641,24.7958 23.7251,24.7958 L20.1931,24.7958 C20.0101,24.7958 19.8371,24.6998 19.7211,24.5598 C19.6041,24.4198 19.5561,24.2198 19.5891,24.0398 L20.1311,21.1188 C20.4441,19.4208 22.0301,18.6598 23.4611,18.6598 C24.8921,18.6598 26.4771,19.4208 26.7921,21.1188 L27.3331,24.0398 C27.3951,24.3728 27.1741,24.6948 26.8411,24.7558 L26.8411,24.7558 Z M18.5661,8.4298 C17.6431,8.4298 16.6291,8.8798 16.4431,9.8848 C16.3811,10.2178 16.0611,10.4378 15.7271,10.3758 C15.3941,10.3148 15.1741,9.9938 15.2351,9.6608 C15.5501,7.9628 17.1351,7.2018 18.5661,7.2018 C19.9971,7.2018 21.5831,7.9628 21.8971,9.6608 C21.9591,9.9938 21.7391,10.3148 21.4051,10.3758 C21.3681,10.3828 21.3301,10.3868 21.2931,10.3868 C21.0031,10.3868 20.7451,10.1798 20.6901,9.8848 C20.5041,8.8798 19.4891,8.4298 18.5661,8.4298 L18.5661,8.4298 Z M17.5441,24.0398 C17.6051,24.3738 17.3851,24.6948 17.0511,24.7558 C17.0141,24.7628 16.9761,24.7668 16.9391,24.7668 C16.6491,24.7668 16.3911,24.5618 16.3371,24.2658 L15.7961,21.3458 C15.6091,20.3418 14.5941,19.8958 13.6721,19.8958 C12.7481,19.8958 11.7341,20.3538 11.5481,21.3578 L11.1411,23.5688 L13.9351,23.5688 C14.2741,23.5688 14.5491,23.8428 14.5491,24.1828 C14.5491,24.5218 14.2751,24.7958 13.9351,24.7958 L10.4031,24.7958 C10.2211,24.7958 10.0481,24.6998 9.9311,24.5598 C9.8151,24.4198 9.7671,24.2198 9.8001,24.0398 L10.3411,21.1188 C10.6551,19.4208 12.2401,18.6598 13.6721,18.6598 C15.1031,18.6598 16.6881,19.4208 17.0031,21.1188 L17.5441,24.0398 Z M2.3231,14.2298 C2.3601,13.2278 3.1821,12.8368 3.8821,12.8058 C4.5831,12.8368 5.4031,13.2278 5.4411,14.2298 C5.4761,15.1528 5.1681,15.8758 4.5961,16.2158 C4.1551,16.4778 3.6091,16.4778 3.1691,16.2158 C2.5971,15.8758 2.2891,15.1528 2.3231,14.2298 L2.3231,14.2298 Z M2.5421,17.2718 C2.9551,17.5168 3.4191,17.6398 3.8821,17.6398 C4.3461,17.6398 4.8091,17.5168 5.2231,17.2718 C6.1931,16.6948 6.7201,15.5698 6.6681,14.1828 C6.6031,12.4568 5.1901,11.6228 3.9041,11.5768 L3.8601,11.5768 C2.5751,11.6228 1.1611,12.4568 1.0971,14.1838 C1.0451,15.5698 1.5711,16.6958 2.5421,17.2718 L2.5421,17.2718 Z M17.0071,2.6518 C17.0451,1.6508 17.8651,1.2598 18.5661,1.2278 C19.2671,1.2598 20.0881,1.6508 20.1251,2.6518 C20.1601,3.5758 19.8521,4.2988 19.2801,4.6388 C18.8401,4.9008 18.2931,4.9008 17.8531,4.6388 C17.2811,4.2988 16.9731,3.5748 17.0071,2.6518 L17.0071,2.6518 Z M17.2261,5.6948 C17.6391,5.9398 18.1031,6.0628 18.5661,6.0628 C19.0301,6.0628 19.4931,5.9398 19.9071,5.6948 C20.8771,5.1168 21.4031,3.9928 21.3521,2.6058 C21.2871,0.8798 19.8741,0.0448 18.5881,-0.0002 L18.5451,-0.0002 C17.2591,0.0448 15.8451,0.8798 15.7811,2.6058 C15.7291,3.9928 16.2561,5.1168 17.2261,5.6948 L17.2261,5.6948 Z M21.9021,14.2298 C21.9401,13.2278 22.7601,12.8368 23.4611,12.8058 C24.1621,12.8368 24.9821,13.2278 25.0201,14.2298 C25.0541,15.1528 24.7461,15.8758 24.1741,16.2158 C23.7351,16.4778 23.1881,16.4778 22.7481,16.2158 C22.1761,15.8758 21.8681,15.1528 21.9021,14.2298 L21.9021,14.2298 Z M20.6761,14.1838 C20.6241,15.5698 21.1511,16.6948 22.1211,17.2718 C22.5341,17.5168 22.9971,17.6398 23.4611,17.6398 C23.9241,17.6398 24.3881,17.5168 24.8011,17.2718 C25.7721,16.6958 26.2981,15.5698 26.2461,14.1838 C26.1821,12.4568 24.7691,11.6228 23.4831,11.5768 L23.4401,11.5768 C22.1531,11.6228 20.7401,12.4568 20.6761,14.1838 L20.6761,14.1838 Z M12.1131,14.2298 C12.1511,13.2278 12.9711,12.8368 13.6721,12.8058 C14.3721,12.8368 15.1931,13.2278 15.2311,14.2298 C15.2651,15.1528 14.9571,15.8758 14.3851,16.2158 C13.9451,16.4778 13.3981,16.4778 12.9581,16.2158 C12.3861,15.8758 12.0781,15.1528 12.1131,14.2298 L12.1131,14.2298 Z M10.8861,14.1838 C10.8341,15.5698 11.3611,16.6948 12.3311,17.2718 C12.7441,17.5168 13.2081,17.6398 13.6721,17.6398 C14.1351,17.6398 14.5991,17.5168 15.0121,17.2718 C15.9831,16.6958 16.5091,15.5698 16.4571,14.1838 C16.3931,12.4568 14.9791,11.6228 13.6931,11.5768 L13.6501,11.5768 C12.3641,11.6228 10.9511,12.4568 10.8861,14.1838 L10.8861,14.1838 Z" id="Fill-1"></path>
            </g>
        </g>
    </g>
</svg>