<svg xmlns="http://www.w3.org/2000/svg" xmlns:xlink="http://www.w3.org/1999/xlink" width="200" height="90" viewBox="0 0 200 90">
    <defs>
        <path id="a" d="M0 0h45v45H0V0z"/>
    </defs>
    <g fill="none" fill-rule="evenodd" transform="translate(78 23)">
        <mask id="b" fill="#fff">
            <use xlink:href="#a"/>
        </mask>
        <path fill="#00EBC5" d="M39.124 42.416a3.271 3.271 0 0 1-3.28-3.262 3.272 3.272 0 0 1 3.28-3.265 3.271 3.271 0 0 1 3.279 3.265 3.271 3.271 0 0 1-3.28 3.262M22.502 9.11a3.271 3.271 0 0 1-3.28-3.261 3.272 3.272 0 0 1 3.28-3.263 3.27 3.27 0 0 1 3.279 3.263A3.27 3.27 0 0 1 22.5 9.11m3.279 30.043c0 1.8-1.469 3.261-3.279 3.261a3.272 3.272 0 0 1-3.28-3.26 3.273 3.273 0 0 1 3.28-3.266 3.272 3.272 0 0 1 3.279 3.265m-16.623 0c0 1.8-1.47 3.261-3.28 3.261a3.271 3.271 0 0 1-3.28-3.26 3.272 3.272 0 0 1 3.28-3.266 3.273 3.273 0 0 1 3.28 3.265m31.791-5.532c.02-.103.031-.21.031-.318v-5.4c0-3.936-3.39-7.138-7.557-7.138h-9.178v-9.36c2.39-.744 4.133-2.936 4.133-5.556C28.377 2.619 25.747 0 22.5 0c-3.246 0-5.877 2.62-5.877 5.849 0 2.62 1.745 4.814 4.134 5.555v9.361h-9.177c-4.167 0-7.557 3.374-7.557 7.52v5.346C1.689 34.406 0 36.57 0 39.153 0 42.383 2.63 45 5.876 45c3.247 0 5.879-2.618 5.879-5.847 0-2.665-1.8-4.886-4.244-5.592v-5.277c0-2.233 1.824-4.05 4.07-4.05h9.175v9.36c-2.39.745-4.134 2.934-4.134 5.56 0 3.228 2.63 5.846 5.877 5.846s5.878-2.618 5.878-5.847c0-2.622-1.744-4.814-4.133-5.557v-9.361h9.18c2.243 0 4.069 1.645 4.069 3.667v5.4c0 .086.014.169.024.25-2.46.697-4.273 2.927-4.273 5.601 0 3.23 2.631 5.847 5.878 5.847C42.369 45 45 42.382 45 39.153c0-2.592-1.706-4.765-4.052-5.532" mask="url(#b)"/>
    </g>
</svg>
