<svg xmlns="http://www.w3.org/2000/svg" width="200" height="90" viewBox="0 0 200 90">
    <g fill="none" fill-rule="evenodd">
        <g stroke="#00EBC5" stroke-linejoin="round" stroke-width="3">
            <path d="M77.39 44.42l-21.822 2.49L76.065 33.97zM127.56 78.794l19 .619-19.584-11.111z"/>
        </g>
        <path fill="#FFF" d="M71 39h40V11H71z"/>
        <path stroke="#00EBC5" stroke-linejoin="round" stroke-width="3" d="M70.75 40.562h40.638V11.886H70.75z"/>
        <path fill="#FFF" d="M99.672 59.703c0-7.886 6.547-14.339 14.549-14.339h11.54c8.002 0 14.549 6.453 14.549 14.339 0 7.885-6.547 14.338-14.548 14.338H114.22c-8.002 0-14.55-6.453-14.55-14.338"/>
        <path stroke="#00EBC5" stroke-linejoin="round" stroke-width="3" d="M99.672 59.703c0-7.886 6.547-14.339 14.549-14.339h11.54c8.002 0 14.549 6.453 14.549 14.339 0 7.885-6.547 14.338-14.548 14.338H114.22c-8.002 0-14.55-6.453-14.55-14.338z"/>
        <path fill="#00EBC5" d="M85.158 26.224a2.044 2.044 0 0 1-2.047 2.043 2.044 2.044 0 0 1-2.045-2.043c0-1.128.916-2.042 2.045-2.042 1.13 0 2.047.914 2.047 2.042M93.115 26.224a2.044 2.044 0 0 1-2.046 2.043 2.044 2.044 0 0 1-2.046-2.043c0-1.128.916-2.042 2.046-2.042s2.046.914 2.046 2.042M101.072 26.224a2.044 2.044 0 0 1-2.046 2.043 2.044 2.044 0 0 1-2.045-2.043c0-1.128.916-2.042 2.045-2.042 1.13 0 2.046.914 2.046 2.042M113.787 59.367a2.044 2.044 0 0 1-2.047 2.042 2.044 2.044 0 0 1-2.045-2.042c0-1.128.916-2.042 2.045-2.042 1.13 0 2.047.914 2.047 2.042M121.744 59.367a2.044 2.044 0 0 1-2.046 2.042 2.044 2.044 0 0 1-2.046-2.042c0-1.128.916-2.042 2.046-2.042s2.046.914 2.046 2.042M129.701 59.367a2.044 2.044 0 0 1-2.046 2.042 2.044 2.044 0 0 1-2.045-2.042c0-1.128.916-2.042 2.045-2.042 1.13 0 2.046.914 2.046 2.042"/>
    </g>
</svg>
