<svg xmlns="http://www.w3.org/2000/svg" width="200" height="90" viewBox="0 0 200 90">
    <g fill="none" fill-rule="evenodd" stroke="#00EBC5" stroke-linejoin="round" stroke-width="3.5">
        <path d="M70.244 40.109c-.972-5.52.972-11.715 5.63-14.918 3.34-2.296 7.849-2.835 11.649-1.392 3.798 1.443 6.777 4.828 7.695 8.741 2.584-5.293 8.096-9.274 14.047-9.397 5.952-.123 11.294 4.165 12.505 9.917 1.055 5.012-1.661 10.098-5.254 13.79-2.352 2.417-18.47 19.616-20.758 22.15-4.034-5.721-11.5-11.582-16.474-16.258-4.092-3.845-8.055-7.032-9.04-12.633zM65 61c10.632-5.673 13.368-7.327 24-13M120 31c6.369-3.351 8.28-4.472 15-8"/>
        <path d="M123 22l14 .047L129.824 34"/>
    </g>
</svg>
