<svg xmlns="http://www.w3.org/2000/svg" width="200" height="90" viewBox="0 0 200 90">
    <g fill="none" fill-rule="evenodd">
        <path fill="#FFF" d="M99.92 18.5L86.71 31.71l13.21 13.21z"/>
        <path stroke="#00EBC5" stroke-linejoin="round" stroke-width="3" d="M99.92 18.5L86.71 31.71l13.21 13.21z"/>
        <path fill="#FFF" d="M99.92 18.5v26.42l13.21-13.21 13.21-13.21z"/>
        <path stroke="#00EBC5" stroke-linejoin="round" stroke-width="3" d="M99.92 18.5v26.42l13.21-13.21 13.21-13.21z"/>
        <path fill="#FFF" d="M73.5 44.92l13.21 13.21 13.21-13.21z"/>
        <path stroke="#00EBC5" stroke-linejoin="round" stroke-width="3" d="M73.5 44.92l13.21 13.21 13.21-13.21z"/>
        <path fill="#FFF" d="M73.5 44.92h26.42L86.71 31.71 73.5 18.5z"/>
        <path stroke="#00EBC5" stroke-linejoin="round" stroke-width="3" d="M73.5 44.92h26.42L86.71 31.71 73.5 18.5z"/>
        <path fill="#FFF" d="M99.92 71.34l13.21-13.21-13.21-13.21z"/>
        <path stroke="#00EBC5" stroke-linejoin="round" stroke-width="3" d="M99.92 71.34l13.21-13.21-13.21-13.21z"/>
        <path fill="#FFF" d="M99.92 71.34V44.92L86.71 58.13 73.5 71.34z"/>
        <path stroke="#00EBC5" stroke-linejoin="round" stroke-width="3" d="M99.92 71.34V44.92L86.71 58.13 73.5 71.34z"/>
        <path fill="#FFF" d="M126.34 44.92l-13.21-13.21-13.21 13.21z"/>
        <path stroke="#00EBC5" stroke-linejoin="round" stroke-width="3" d="M126.34 44.92l-13.21-13.21-13.21 13.21z"/>
        <path fill="#FFF" d="M126.34 44.92H99.92l13.21 13.21 13.21 13.21z"/>
        <path stroke="#00EBC5" stroke-linejoin="round" stroke-width="3" d="M126.34 44.92H99.92l13.21 13.21 13.21 13.21z"/>
    </g>
</svg>
