<svg xmlns="http://www.w3.org/2000/svg" xmlns:xlink="http://www.w3.org/1999/xlink" width="200" height="90" viewBox="0 0 200 90">
    <defs>
        <path id="a" d="M.46.387h43.65v35.31H.46z"/>
        <path id="c" d="M13.392 5H.344V.09h13.048V5z"/>
    </defs>
    <g fill="none" fill-rule="evenodd">
        <path fill="#00EBC5" d="M120.85 51.746c-.394-.137-.795-.255-1.187-.395-1.303-.464-2.562-1.016-3.674-1.85-.926-.694-1.636-1.542-1.952-2.673-.278-.994-.29-2.007-.159-3.015.173-1.323.402-2.64.62-3.956.26-1.575.488-3.15.485-4.75 0-.161.003-.323 0-.485-.032-1.494-.248-2.961-.75-4.373-1.374-3.868-3.965-6.688-7.648-8.525-2.45-1.222-5.067-1.764-7.81-1.722a16.324 16.324 0 0 0-4.091.561c-4.114 1.135-7.44 3.358-9.74 6.971-.563.887-1.084 1.802-1.642 2.691-.698 1.109-1.578 2.047-2.71 2.738-.76.466-1.575.812-2.422 1.093-.903.299-1.383 1.26-1.078 2.139.301.866 1.23 1.303 2.137 1 .32-.108.64-.22.955-.343 2-.773 3.733-1.916 5.07-3.605.742-.938 1.339-1.966 1.942-2.991.573-.975 1.16-1.945 1.96-2.757 2.839-2.88 6.305-4.259 10.365-4.172 1.902.04 3.717.475 5.43 1.296 2.522 1.21 4.43 3.044 5.644 5.555.95 1.963 1.164 4.046.992 6.189-.12 1.494-.404 2.965-.662 4.44-.263 1.5-.496 3.003-.46 4.534.03 1.222.248 2.403.762 3.522.736 1.602 1.94 2.791 3.406 3.741 1.646 1.066 3.456 1.772 5.33 2.325.633.186 1.207.002 1.641-.497.768-.884.366-2.294-.755-2.686"/>
        <g transform="translate(79 14)">
            <mask id="b" fill="#fff">
                <use xlink:href="#a"/>
            </mask>
            <path fill="#00EBC5" d="M43.743 33.01c-.24-.311-.57-.483-.919-.635-.66-.285-1.12-.743-1.16-1.501-.021-.394-.037-.794.016-1.182.16-1.143.348-2.282.535-3.422.283-1.714.501-3.434.49-5.3 0-1.892-.23-3.61-.723-5.56-.857-3.396-2.584-6.271-5.14-8.657a22.256 22.256 0 0 0-5.436-3.715C28.028 1.386 24.45.543 20.7.404a24.755 24.755 0 0 0-5.575.42A22.545 22.545 0 0 0 9.144 2.84a20.68 20.68 0 0 0-6.496 5.128c-.814.96-1.502 1.998-1.982 3.167-.152.37-.253.752-.184 1.155.099.585.597 1.071 1.212 1.208.566.125 1.15-.109 1.502-.617.296-.428.578-.866.87-1.297a17.203 17.203 0 0 1 6.974-5.985c3.076-1.463 6.33-2.018 9.716-1.88a23.36 23.36 0 0 1 5.998 1.027c3.23 1.004 6.112 2.603 8.475 5.061 1.037 1.078 1.913 2.275 2.538 3.635 1.405 3.054 1.866 6.273 1.528 9.598-.155 1.534-.442 3.054-.677 4.58-.16 1.029-.324 2.057-.287 3.104.033.961.24 1.873.765 2.695.719 1.128 1.78 1.802 3.017 2.22.21.072.47.071.691.028 1.31-.254 1.656-1.726.94-2.657" mask="url(#b)"/>
        </g>
        <path fill="#00EBC5" d="M115.86 63.643c-2.28-.874-4.52-1.837-6.686-2.982-2.143-1.132-4.174-2.442-6.063-3.986a23.78 23.78 0 0 0-1.753-1.284 2.364 2.364 0 0 0-1.311-.391c-.203.029-.408.045-.608.09-.746.167-1.412.535-2.073.91-1.194.677-2.368 1.393-3.577 2.04-2.526 1.35-5.174 2.408-7.873 3.328-.91.31-1.83.59-2.741.895-.889.297-1.372 1.263-1.099 2.176.273.912 1.133 1.38 2.054 1.111.406-.117.809-.246 1.212-.375 4.28-1.368 8.43-3.052 12.318-5.373a11.92 11.92 0 0 1 1.449-.715 1.544 1.544 0 0 1 1.37.065c.39.208.778.432 1.128.702a42.982 42.982 0 0 0 7.233 4.479 64.417 64.417 0 0 0 5.955 2.564 1.596 1.596 0 0 0 1.896-.607c.64-.977.25-2.233-.832-2.647M86.477 49.808c3.77-1.64 7.185-3.814 10.028-6.837 1.825-1.942 3.283-4.13 4.311-6.603.089-.212.124-.447.184-.672l-.029-.011c-.012-.115-.012-.231-.036-.342a1.656 1.656 0 0 0-1.467-1.335c-.711-.073-1.38.34-1.684 1.02-.21.473-.423.946-.664 1.404-1.422 2.698-3.426 4.889-5.822 6.73-2.623 2.015-5.533 3.487-8.65 4.545-1.093.37-2.209.673-3.322.98-.94.259-1.504 1.148-1.275 2.073.229.92 1.106 1.42 2.068 1.18 2.174-.543 4.3-1.236 6.358-2.132"/>
        <path fill="#00EBC5" d="M111.902 68.642a75.474 75.474 0 0 1-6.76-3.239c-1.14-.618-2.272-1.252-3.413-1.868-.468-.253-.959-.454-1.491-.515-.671-.078-1.307.08-1.905.363a80.71 80.71 0 0 0-2.844 1.424c-2.376 1.241-4.832 2.287-7.344 3.193-.772.278-1.219 1-1.135 1.837.102 1.016 1.085 1.818 2.144 1.434 3.045-1.103 6.01-2.393 8.862-3.956.535-.294 1.092-.54 1.715-.558.547-.013 1.056.15 1.533.406 1.022.545 2.031 1.114 3.053 1.657a75.266 75.266 0 0 0 6.484 3.057c.422.174.85.167 1.255-.045.631-.328.964-.868.943-1.6-.022-.77-.41-1.3-1.097-1.59M118.817 57.791c-2.075-.674-4.09-1.486-5.984-2.573-1.606-.922-3.074-2.015-4.303-3.406a12.547 12.547 0 0 1-1.422-1.972 1.665 1.665 0 0 0-2.154-.68c-.907.432-1.221 1.475-.707 2.361 1.237 2.134 2.932 3.848 4.94 5.274 2.631 1.87 5.56 3.14 8.623 4.126 1.067.344 2.185-.484 2.19-1.58.004-.719-.445-1.31-1.183-1.55"/>
        <g transform="translate(93 70)">
            <mask id="d" fill="#fff">
                <use xlink:href="#c"/>
            </mask>
            <path fill="#00EBC5" d="M12.428 2.143c-.338-.14-.678-.273-1.017-.41C10.305 1.284 9.203.829 8.093.388c-.956-.381-1.93-.404-2.887-.02-1.347.539-2.69 1.082-4.016 1.66C.404 2.372.127 3.265.523 3.965c.414.733 1.52 1.078 2.371.723.776-.322 1.536-.673 2.314-.99a6.133 6.133 0 0 1 1.101-.343c.506-.103.984.058 1.439.243 1 .405 1.994.818 2.988 1.233.372.155.753.204 1.16.145.872-.127 1.495-.74 1.496-1.484.002-.593-.36-1.101-.964-1.35" mask="url(#d)"/>
        </g>
        <path fill="#00EBC5" d="M105.631 29.787c-1.798-1.816-4.024-2.7-6.574-2.782A9.053 9.053 0 0 0 94.58 28c-2.056 1.051-3.48 2.688-4.384 4.781a11.895 11.895 0 0 1-2.532 3.702c-1.39 1.397-3.01 2.473-4.768 3.355-1.49.748-3.05 1.326-4.653 1.788-.51.146-.877.46-1.098.938-.06.129-.098.266-.145.4v.575c.009.014.025.028.028.044.153.865 1.1 1.555 2.146 1.217.571-.184 1.15-.349 1.716-.545 2.589-.9 5.02-2.1 7.202-3.768 2.277-1.74 4.09-3.846 5.216-6.508.56-1.326 1.47-2.378 2.783-3.022 1.943-.954 3.896-.868 5.788.128 2.33 1.227 3.288 3.552 2.536 6.044-.282.938-.729 1.808-1.186 2.67-1.865 3.523-4.45 6.437-7.59 8.88-3.624 2.818-7.686 4.804-12.046 6.21-.988.319-1.998.57-2.994.867a1.677 1.677 0 0 0-1.127 2.067c.243.86 1.118 1.35 2.015 1.12 3.588-.915 7.044-2.18 10.327-3.896 3.576-1.868 6.81-4.19 9.596-7.114a29.525 29.525 0 0 0 5.503-8.076c.54-1.177.963-2.383 1.06-3.686.185-2.48-.597-4.62-2.342-6.384"/>
    </g>
</svg>
