<?xml version="1.0" encoding="utf-8"?>
<!-- Generator: Adobe Illustrator 21.1.0, SVG Export Plug-In . SVG Version: 6.00 Build 0)  -->
<svg version="1.1" id="Ebene_1" xmlns="http://www.w3.org/2000/svg" xmlns:xlink="http://www.w3.org/1999/xlink" x="0px" y="0px"
	 width="200px" height="90px" viewBox="0 0 200 90" style="enable-background:new 0 0 200 90;" xml:space="preserve">
<style type="text/css">
	.st0{fill:none;stroke:#00EBC5;stroke-width:3;stroke-linecap:round;stroke-linejoin:round;stroke-miterlimit:10;}
	.st1{fill:#FFFFFF;}
	.st2{fill:#00EBC5;}
</style>
<g>
	<g>
		<polygon class="st0" points="100,23.6 88.6,35 100,46.3 		"/>
		<polygon class="st0" points="100,23.6 100,46.3 111.4,35 122.7,23.6 		"/>
	</g>
	<g>
		<polygon class="st0" points="77.3,46.3 88.6,57.7 100,46.3 		"/>
		<polygon class="st0" points="77.3,46.3 100,46.3 88.6,35 77.3,23.6 		"/>
	</g>
	<g>
		<polygon class="st0" points="100,69.1 111.4,57.7 100,46.3 		"/>
		<polygon class="st0" points="100,69.1 100,46.3 88.6,57.7 77.3,69.1 		"/>
	</g>
	<g>
		<polygon class="st0" points="122.7,46.3 111.4,35 100,46.3 		"/>
		<polygon class="st0" points="122.7,46.3 100,46.3 111.4,57.7 122.7,69.1 		"/>
	</g>
</g>
<g>
	<path class="st1" d="M100,50.3c-1.1,0-2-0.4-2.8-1.2c-0.7-0.7-1.2-1.7-1.2-2.8c0-1.1,0.4-2,1.2-2.8c0.7-0.7,1.7-1.2,2.8-1.2
		c1.1,0,2,0.4,2.8,1.2c0.7,0.7,1.2,1.7,1.2,2.8c0,1.1-0.4,2-1.2,2.8C102,49.9,101,50.3,100,50.3z"/>
	<path class="st2" d="M100,43.9c0.6,0,1.3,0.2,1.7,0.7c1,1,1,2.5,0,3.5c-0.5,0.5-1.1,0.7-1.7,0.7s-1.3-0.2-1.7-0.7c-1-1-1-2.5,0-3.5
		C98.7,44.1,99.3,43.9,100,43.9 M100,40.9c-1.5,0-2.8,0.6-3.9,1.6c-1,1-1.6,2.4-1.6,3.9c0,1.5,0.6,2.8,1.6,3.9s2.4,1.6,3.9,1.6
		c1.5,0,2.8-0.6,3.9-1.6c1-1,1.6-2.4,1.6-3.9c0-1.5-0.6-2.8-1.6-3.9C102.8,41.4,101.4,40.9,100,40.9L100,40.9z"/>
</g>
</svg>
